<mxfile host="app.diagrams.net" modified="2022-05-14T20:15:18.592Z" agent="5.0 (Windows NT 10.0; WOW64) AppleWebKit/537.36 (KHTML, like Gecko) Chrome/100.0.4896.127 Safari/537.36" etag="aWNm1Kx-voYJv0mo2VfU" version="16.2.4" type="github">
  <diagram id="n19dWxNPql3A_Z4yUUAx" name="Page-1">
    <mxGraphModel dx="1422" dy="705" grid="1" gridSize="10" guides="1" tooltips="1" connect="1" arrows="1" fold="1" page="1" pageScale="1" pageWidth="827" pageHeight="1169" math="0" shadow="0">
      <root>
        <mxCell id="0" />
        <mxCell id="1" parent="0" />
        <mxCell id="44RcO6OPjRykOQoV6bxz-2" value="" style="whiteSpace=wrap;html=1;aspect=fixed;" vertex="1" parent="1">
          <mxGeometry x="370" y="320" width="80" height="80" as="geometry" />
        </mxCell>
        <mxCell id="44RcO6OPjRykOQoV6bxz-3" value="" style="whiteSpace=wrap;html=1;aspect=fixed;" vertex="1" parent="1">
          <mxGeometry x="460" y="320" width="80" height="80" as="geometry" />
        </mxCell>
        <mxCell id="44RcO6OPjRykOQoV6bxz-4" value="" style="whiteSpace=wrap;html=1;aspect=fixed;" vertex="1" parent="1">
          <mxGeometry x="550" y="320" width="80" height="80" as="geometry" />
        </mxCell>
        <mxCell id="44RcO6OPjRykOQoV6bxz-5" value="" style="shape=image;html=1;verticalAlign=top;verticalLabelPosition=bottom;labelBackgroundColor=#ffffff;imageAspect=0;aspect=fixed;image=https://cdn0.iconfinder.com/data/icons/octicons/1024/primitive-dot-128.png" vertex="1" parent="1">
          <mxGeometry x="401" y="320" width="18" height="18" as="geometry" />
        </mxCell>
        <mxCell id="44RcO6OPjRykOQoV6bxz-9" value="" style="shape=ellipse;fillColor=#0065FF;strokeColor=none;html=1;sketch=0;" vertex="1" parent="1">
          <mxGeometry x="405" y="355" width="10" height="10" as="geometry" />
        </mxCell>
        <mxCell id="44RcO6OPjRykOQoV6bxz-10" value="" style="shape=image;html=1;verticalAlign=top;verticalLabelPosition=bottom;labelBackgroundColor=#ffffff;imageAspect=0;aspect=fixed;image=https://cdn0.iconfinder.com/data/icons/octicons/1024/primitive-dot-128.png" vertex="1" parent="1">
          <mxGeometry x="391" y="330" width="18" height="18" as="geometry" />
        </mxCell>
        <mxCell id="44RcO6OPjRykOQoV6bxz-11" value="" style="shape=image;html=1;verticalAlign=top;verticalLabelPosition=bottom;labelBackgroundColor=#ffffff;imageAspect=0;aspect=fixed;image=https://cdn0.iconfinder.com/data/icons/octicons/1024/primitive-dot-128.png" vertex="1" parent="1">
          <mxGeometry x="409" y="330" width="18" height="18" as="geometry" />
        </mxCell>
        <mxCell id="44RcO6OPjRykOQoV6bxz-12" value="" style="shape=image;html=1;verticalAlign=top;verticalLabelPosition=bottom;labelBackgroundColor=#ffffff;imageAspect=0;aspect=fixed;image=https://cdn0.iconfinder.com/data/icons/octicons/1024/primitive-dot-128.png" vertex="1" parent="1">
          <mxGeometry x="419" y="320" width="18" height="18" as="geometry" />
        </mxCell>
        <mxCell id="44RcO6OPjRykOQoV6bxz-13" value="" style="shape=image;html=1;verticalAlign=top;verticalLabelPosition=bottom;labelBackgroundColor=#ffffff;imageAspect=0;aspect=fixed;image=https://cdn0.iconfinder.com/data/icons/octicons/1024/primitive-dot-128.png" vertex="1" parent="1">
          <mxGeometry x="432" y="338" width="18" height="18" as="geometry" />
        </mxCell>
        <mxCell id="44RcO6OPjRykOQoV6bxz-19" value="" style="shape=ellipse;fillColor=#0065FF;strokeColor=none;html=1;sketch=0;" vertex="1" parent="1">
          <mxGeometry x="495" y="355" width="10" height="10" as="geometry" />
        </mxCell>
        <mxCell id="44RcO6OPjRykOQoV6bxz-20" value="" style="shape=ellipse;fillColor=#0065FF;strokeColor=none;html=1;sketch=0;" vertex="1" parent="1">
          <mxGeometry x="585" y="355" width="10" height="10" as="geometry" />
        </mxCell>
        <mxCell id="44RcO6OPjRykOQoV6bxz-21" value="" style="shape=image;html=1;verticalAlign=top;verticalLabelPosition=bottom;labelBackgroundColor=#ffffff;imageAspect=0;aspect=fixed;image=https://cdn0.iconfinder.com/data/icons/octicons/1024/primitive-dot-128.png" vertex="1" parent="1">
          <mxGeometry x="477" y="351" width="18" height="18" as="geometry" />
        </mxCell>
        <mxCell id="44RcO6OPjRykOQoV6bxz-22" value="" style="shape=image;html=1;verticalAlign=top;verticalLabelPosition=bottom;labelBackgroundColor=#ffffff;imageAspect=0;aspect=fixed;image=https://cdn0.iconfinder.com/data/icons/octicons/1024/primitive-dot-128.png" vertex="1" parent="1">
          <mxGeometry x="505" y="351" width="18" height="18" as="geometry" />
        </mxCell>
        <mxCell id="44RcO6OPjRykOQoV6bxz-23" value="" style="shape=image;html=1;verticalAlign=top;verticalLabelPosition=bottom;labelBackgroundColor=#ffffff;imageAspect=0;aspect=fixed;image=https://cdn0.iconfinder.com/data/icons/octicons/1024/primitive-dot-128.png" vertex="1" parent="1">
          <mxGeometry x="491" y="330" width="18" height="18" as="geometry" />
        </mxCell>
        <mxCell id="44RcO6OPjRykOQoV6bxz-24" value="" style="shape=image;html=1;verticalAlign=top;verticalLabelPosition=bottom;labelBackgroundColor=#ffffff;imageAspect=0;aspect=fixed;image=https://cdn0.iconfinder.com/data/icons/octicons/1024/primitive-dot-128.png" vertex="1" parent="1">
          <mxGeometry x="509" y="320" width="18" height="18" as="geometry" />
        </mxCell>
        <mxCell id="44RcO6OPjRykOQoV6bxz-25" value="" style="shape=image;html=1;verticalAlign=top;verticalLabelPosition=bottom;labelBackgroundColor=#ffffff;imageAspect=0;aspect=fixed;image=https://cdn0.iconfinder.com/data/icons/octicons/1024/primitive-dot-128.png" vertex="1" parent="1">
          <mxGeometry x="522" y="337" width="18" height="18" as="geometry" />
        </mxCell>
        <mxCell id="44RcO6OPjRykOQoV6bxz-26" value="" style="shape=image;html=1;verticalAlign=top;verticalLabelPosition=bottom;labelBackgroundColor=#ffffff;imageAspect=0;aspect=fixed;image=https://cdn0.iconfinder.com/data/icons/octicons/1024/primitive-dot-128.png" vertex="1" parent="1">
          <mxGeometry x="566" y="351" width="18" height="18" as="geometry" />
        </mxCell>
        <mxCell id="44RcO6OPjRykOQoV6bxz-27" value="" style="shape=image;html=1;verticalAlign=top;verticalLabelPosition=bottom;labelBackgroundColor=#ffffff;imageAspect=0;aspect=fixed;image=https://cdn0.iconfinder.com/data/icons/octicons/1024/primitive-dot-128.png" vertex="1" parent="1">
          <mxGeometry x="596" y="351" width="18" height="18" as="geometry" />
        </mxCell>
        <mxCell id="44RcO6OPjRykOQoV6bxz-28" value="" style="shape=image;html=1;verticalAlign=top;verticalLabelPosition=bottom;labelBackgroundColor=#ffffff;imageAspect=0;aspect=fixed;image=https://cdn0.iconfinder.com/data/icons/octicons/1024/primitive-dot-128.png" vertex="1" parent="1">
          <mxGeometry x="577" y="337" width="18" height="18" as="geometry" />
        </mxCell>
        <mxCell id="44RcO6OPjRykOQoV6bxz-29" value="" style="shape=image;html=1;verticalAlign=top;verticalLabelPosition=bottom;labelBackgroundColor=#ffffff;imageAspect=0;aspect=fixed;image=https://cdn0.iconfinder.com/data/icons/octicons/1024/primitive-dot-128.png" vertex="1" parent="1">
          <mxGeometry x="595" y="333" width="18" height="18" as="geometry" />
        </mxCell>
        <mxCell id="44RcO6OPjRykOQoV6bxz-30" value="" style="shape=image;html=1;verticalAlign=top;verticalLabelPosition=bottom;labelBackgroundColor=#ffffff;imageAspect=0;aspect=fixed;image=https://cdn0.iconfinder.com/data/icons/octicons/1024/primitive-dot-128.png" vertex="1" parent="1">
          <mxGeometry x="581" y="369" width="18" height="18" as="geometry" />
        </mxCell>
        <mxCell id="44RcO6OPjRykOQoV6bxz-31" value="&lt;font style=&quot;font-size: 9px&quot;&gt;a) Original Images&lt;/font&gt;" style="text;html=1;align=center;verticalAlign=middle;resizable=0;points=[];autosize=1;strokeColor=none;fillColor=none;" vertex="1" parent="1">
          <mxGeometry x="365" y="300" width="90" height="20" as="geometry" />
        </mxCell>
        <mxCell id="44RcO6OPjRykOQoV6bxz-32" value="&lt;font style=&quot;font-size: 9px&quot;&gt;b) Convex Polytope&lt;/font&gt;" style="text;html=1;align=center;verticalAlign=middle;resizable=0;points=[];autosize=1;strokeColor=none;fillColor=none;" vertex="1" parent="1">
          <mxGeometry x="455" y="300" width="90" height="20" as="geometry" />
        </mxCell>
        <mxCell id="44RcO6OPjRykOQoV6bxz-33" value="&lt;font style=&quot;font-size: 9px&quot;&gt;c) Bullseye Polytope&lt;/font&gt;" style="text;html=1;align=center;verticalAlign=middle;resizable=0;points=[];autosize=1;strokeColor=none;fillColor=none;" vertex="1" parent="1">
          <mxGeometry x="540" y="300" width="100" height="20" as="geometry" />
        </mxCell>
      </root>
    </mxGraphModel>
  </diagram>
</mxfile>
